<?xml version="1.0" encoding="UTF-8"?>
<svg id="Camada_2" data-name="Camada 2" xmlns="http://www.w3.org/2000/svg" viewBox="0 0 828.9 828.9">
  <defs>
    <style>
      .cls-1 {
        fill: #1b1923;
        stroke-width: 0px;
      }
    </style>
  </defs>
  <g id="Camada_1-2" data-name="Camada 1">
    <g>
      <path class="cls-1" d="m745.7,513.98l-11.93,20.66-.26.45-10.74,18.58h-45.81l-12.19,21.11-10.74,18.58-12.19,21.11-10.74,18.58-12.15,21.07-6.75,11.7-3.99,6.92h-91.66l-12.19,21.07-10.74,18.61h-91.62l-6.29,10.9-2.95,5.1-2.95,5.1,2.94,5.1,2.94,5.11,4.82,8.37h45.81l12.19,21.11,10.28,17.8c56.17-7.99,109.35-28.33,156.31-59.68,17.98-12,35.03-25.66,51-40.82,2.45-2.33,4.92-4.64,7.32-7.04,10.36-10.36,19.99-21.25,28.98-32.55,4.15-5.21,8.2-10.48,12.05-15.87,15.2-21.27,28-43.94,38.4-67.65,2.03-4.63,4.01-9.29,5.85-14,2.92-7.45,5.66-14.97,8.1-22.6l-9.71-16.81h-21.44Z"/>
      <path class="cls-1" d="m114.86,257.25l10.74,18.61h-21.48l-12.19,21.07,10.77,18.61,12.15,21.11,4.5,7.8.51.89,5.37,9.3.34.6,12.19,21.11,10.74,18.58,6.29,10.89,9.21-16,10.73-18.58,12.19-21.11,2.95-5.1h149.25l4.85-8.41,12.19-21.07,10.74-18.61,12.19-21.07,1.36-2.36,9.38-16.23,12.15-21.11,4.84-8.38,2.95-5.1,2.95-5.1-8.04-13.96-4.11-7.15-1.89-3.28-8.84-15.3-12.19-21.11h-91.66l-10.74-18.58,12.19-21.11h45.81l4.84-8.38,2.95-5.1,2.95-5.1-2.95-5.1-2.95-5.1-6.29-10.9h-94.12c-.06.03-.11.06-.17.09-12.51,6.59-24.67,13.88-36.44,21.88-3.95,2.69-7.85,5.44-11.71,8.28-.29.21-.56.44-.85.65-3.55,2.63-7.06,5.3-10.53,8.06-.8.64-1.57,1.31-2.37,1.95-2.94,2.38-5.87,4.76-8.75,7.23-1.61,1.38-3.17,2.83-4.76,4.25-2.03,1.81-4.09,3.58-6.09,5.43-3.58,3.32-7.11,6.71-10.58,10.19-.78.78-1.54,1.58-2.32,2.37-12.05,12.26-23.12,25.22-33.28,38.74l-5.73,9.93-12.19,21.07,10.74,18.61,12.19,21.07Z"/>
      <polygon class="cls-1" points="383.94 723.31 377.65 712.41 366.91 693.83 379.1 672.73 389.83 654.14 390.24 653.44 402.02 633.04 412.76 614.46 412.76 614.43 424.91 593.35 435.64 574.77 447.83 553.67 458.57 535.09 470.75 513.98 481.49 495.4 481.49 495.37 469.31 474.3 458.57 455.72 446.38 434.61 435.64 416.03 423.46 394.92 377.65 394.92 366.91 376.34 354.73 355.24 352.12 355.24 348.96 355.24 341.1 355.24 333.25 355.24 254.63 355.24 195.78 355.24 183.6 376.34 172.86 394.92 160.71 416.03 156.78 422.83 152.84 429.63 149.97 434.61 137.78 455.72 148.52 474.3 148.62 474.47 160.71 495.4 171.41 513.98 183.6 535.09 194.33 553.67 240.14 553.67 252.36 574.77 263.07 593.35 267.12 600.38 275.25 614.46 264.55 633.04 252.77 653.44 252.36 654.14 263.07 672.73 275.25 693.83 285.99 712.41 298.18 733.52 308.91 752.1 379.1 752.1 383.94 743.72 380.99 738.61 378.05 733.51 381 728.41 383.94 723.31"/>
      <polygon class="cls-1" points="713.93 389.82 718.2 382.43 721.73 376.34 712.49 360.34 701.75 341.76 692.51 325.76 688.53 325.76 606.78 325.76 600.89 325.76 597.94 320.66 587.2 302.08 575.43 281.69 575.02 280.97 568.64 269.93 564.28 262.39 555.04 246.39 477.5 246.39 439.04 246.39 423.46 246.39 417.57 246.39 411.81 246.39 407.89 246.39 398.68 262.38 387.93 280.97 375.75 302.05 365.01 320.65 362.76 324.55 355.77 336.63 357.52 339.66 357.74 340.03 363.55 350.1 363.56 350.13 369.66 360.69 375.75 371.24 383.54 384.72 423.46 384.72 429.35 384.72 432.3 389.82 433.44 391.79 444.49 410.93 449.85 420.21 455.22 429.51 467.41 450.61 478.14 469.19 490.33 490.26 491.7 492.63 491.7 492.66 491.7 495.37 491.7 495.4 491.7 498.1 491.7 498.14 490.33 500.51 479.59 519.08 467.41 540.19 456.67 558.77 444.48 579.88 443.17 582.15 433.74 598.46 422.96 617.16 422.96 617.16 422.96 617.2 421.59 619.57 410.86 638.15 406.7 645.34 402.03 653.44 398.67 659.25 387.93 677.83 378.7 693.83 386.48 707.31 387.4 708.89 389.83 713.11 393.18 707.31 396.13 702.21 402.02 702.21 487.75 702.21 495.55 688.69 507.73 667.62 510.68 662.52 516.57 662.52 585.42 662.52 602.33 662.52 602.58 662.09 610.12 649.01 613.36 643.4 622.28 627.93 630.8 613.18 633.01 609.35 645.2 588.25 650.57 578.96 655.94 569.67 668.12 548.56 671.07 543.46 676.96 543.46 716.88 543.46 724.67 529.98 726.62 526.61 736.86 508.88 739.8 503.78 739.81 503.78 744.66 495.39 735.41 479.4 724.67 460.82 712.49 439.71 701.75 421.14 698.8 416.03 701.75 410.93 713.93 389.82"/>
      <path class="cls-1" d="m356.17,77.44l-4.33,7.5,3.93,6.8,3.93,6.81-3.93,6.81-3.92,6.79,2.88,4.98,12.19,21.11,2.88,4.97h15.72l3.93,6.8,12.19,21.1,6.58,11.39,2.38,4.12,1.78,3.08,12.15,21.11,3.92,6.8-3.93,6.8-3.92,6.79,2.88,4.98h137.47l12.19,21.11,10.74,18.58h70.18l4.39-7.6,3.05-5.27,2.84-4.92-8.93-17.06-2.79-4.84-10.74-18.58-12.18-21.11-10.71-18.58-12.19-21.11h70.18l6.54-11.32s-.03-.03-.04-.04c-18.76-18.77-39.16-35.31-60.84-49.54l-35.61-20.7c-7.98-4.07-16.11-7.82-24.35-11.3-4.69-1.98-9.42-3.88-14.19-5.67-2.18-.82-4.38-1.6-6.58-2.38-9.97-3.54-20.09-6.69-30.36-9.38l-7.14,12.37-10.74,18.58h-24.37l-10.7-18.58-12.19-21.11h-67.29l-12.19,21.11-10.74,18.58Z"/>
      <path class="cls-1" d="m794.55,248.98c-22.02-50.5-53.45-95.53-93.42-133.82-45.85-43.93-101.66-76.97-161.89-95.98-3.03-.96-6.06-1.91-9.12-2.8-1.38-.4-2.78-.75-4.16-1.14-2.94-.82-5.9-1.57-8.87-2.33,0,0,0,0,0,0-29.57-7.54-60.01-11.86-90.7-12.73-4.34-.12-8.25-.18-11.93-.18s-7.98.07-12.72.21c-30.56.92-60.62,5.18-89.89,12.64-2.96.75-5.92,1.51-8.87,2.33-4.46,1.24-8.89,2.58-13.3,3.97-9.78,3.09-19.47,6.52-29.03,10.35-49.94,19.97-94.99,49.13-133.89,86.66-39.66,38.26-70.85,83.17-92.68,133.49C11.46,301.74,0,357.19,0,414.45c0,38.41,5.26,76,15.31,112.01,1.01,3.61,2.01,7.22,3.11,10.79,1.37,4.42,2.81,8.81,4.32,13.18,5.29,15.27,11.52,30.2,18.57,44.74,12.87,26.54,28.6,51.76,47.11,75.25,9.16,11.62,19.02,22.8,29.5,33.53,1.16,1.19,2.29,2.39,3.46,3.56,1.11,1.11,2.25,2.19,3.38,3.29,19.23,18.81,39.99,35.49,61.97,50.01,5.84,3.86,11.75,7.6,17.76,11.14,15.41,9.09,31.36,17.13,47.77,24.11,50.62,21.52,105.53,32.84,162.19,32.84,52.38,0,103.43-9.64,151.73-28.66,3.62-1.43,7.21-2.91,10.78-4.43,16.63-7.09,32.66-15.24,48.05-24.32,5.81-3.43,11.5-7.03,17.11-10.73,22.39-14.74,43.24-31.52,62.25-50.14,2.24-2.19,4.41-4.43,6.6-6.67,10.39-10.64,20.23-21.79,29.42-33.48,18.3-23.29,34.09-48.57,47.09-75.41,7.03-14.5,13.28-29.42,18.6-44.78,1.51-4.36,2.96-8.74,4.33-13.16,1.1-3.55,2.14-7.13,3.14-10.72,1.23-4.39,2.4-8.79,3.49-13.24,7.87-32.21,11.86-65.42,11.86-98.72,0-57.52-11.56-113.19-34.36-165.47Zm-.73,243.25c-.64,3.13-1.3,6.26-2.01,9.37-1.11,4.86-2.33,9.69-3.63,14.5-.85,3.14-1.69,6.28-2.61,9.4-4.83,16.22-10.75,32.07-17.69,47.52-1.86,4.14-3.75,8.26-5.76,12.33-7.39,14.98-15.78,29.51-25.15,43.54-2.27,3.4-4.56,6.78-6.94,10.12-5.1,7.13-10.52,14.07-16.1,20.87-8.11,9.87-16.65,19.4-25.65,28.4-1.68,1.68-3.41,3.29-5.11,4.94-17.08,16.49-35.32,31.21-54.58,44.08-38.52,25.74-81.06,44.13-126.39,54.49-13.32,3.04-26.89,5.34-40.66,6.99-3.51.42-7,.88-10.54,1.21-12.19,1.13-24.49,1.71-36.54,1.71-77.33,0-151.19-22.52-214.11-64.44-19.32-12.87-37.59-27.58-54.63-44.03-1.7-1.64-3.4-3.28-5.07-4.95-33.84-33.84-60.61-72.85-79.64-115.23-8.24-18.36-15.06-37.35-20.33-56.84-1.3-4.81-2.51-9.64-3.62-14.51-.71-3.12-1.37-6.25-2.01-9.39-5.15-25.35-7.82-51.39-7.82-77.85,0-68.11,17.74-134.54,51.33-192.87,1.79-3.11,3.6-6.21,5.48-9.27l.06-.1.06-.1,14.59-22.01.07-.1.07-.1c9.43-13.19,19.83-25.88,30.95-37.92,2.78-3.01,5.58-6.01,8.45-8.94l.92-.95c.47-.49.95-.98,1.43-1.46,28.5-28.5,60.51-51.97,95.52-70.14,4.45-2.31,8.95-4.53,13.5-6.67,7.05-3.31,14.23-6.39,21.5-9.28,1.24-.49,2.46-1.03,3.71-1.51,3.4-1.31,6.83-2.56,10.27-3.77,2.34-.83,4.71-1.6,7.06-2.38,25.82-8.54,52.57-14.36,79.83-17.32,1.87-.2,3.73-.45,5.6-.62,7.13-.67,14.3-1.12,21.44-1.4.86-.03,1.71-.05,2.57-.08,4.28-.15,8.56-.25,12.81-.25,5.09,0,10.24.12,15.42.33,6.5.26,13.04.67,19.58,1.25,1.27.11,2.52.29,3.79.42,17.35,1.72,34.6,4.63,51.49,8.64,2.68.64,5.38,1.22,8.03,1.91.76.2,1.52.42,2.28.63,7.3,1.95,14.53,4.19,21.7,6.57,2.35.78,4.71,1.51,7.04,2.33,4.7,1.66,9.35,3.44,13.98,5.27,11,4.37,21.81,9.22,32.33,14.58l.17.09.16.09,35.61,20.7.16.09.15.1c21.73,14.26,42.12,30.82,60.66,49.19.42.41.84.81,1.26,1.22l.72.73.53.54c1.66,1.67,3.28,3.38,4.91,5.07,69.22,72.38,107.27,167.07,107.27,267.47,0,26.42-2.7,52.42-7.87,77.77Z"/>
    </g>
  </g>
</svg>
